<svg height="464.00001pt" viewBox="12 12 464.00001 464.00001" width="464.00001pt" xmlns="http://www.w3.org/2000/svg"><path d="m275.9375 0h1.664062c4.675782-.00390625 9.164063 1.855469 12.46875 5.167969l.9375.9375c5.617188 5.621093 5.617188 14.726562 0 20.351562l-.679687.679688c-2.992187 3-2.992187 7.855469 0 10.855469l5.433594 5.421874c1.4375 1.441407 3.386719 2.25 5.421875 2.25s3.988281-.808593 5.425781-2.25l5.429687-5.421874c1.441407-1.441407 3.394532-2.25 5.429688-2.25s3.988281.808593 5.425781 2.25l5.425781 5.421874c1.441407 1.441407 2.25 3.394532 2.25 5.429688s-.808593 3.988281-2.25 5.429688l-5.425781 5.421874c-1.4375 1.441407-2.25 3.390626-2.25 5.429688 0 2.035156.8125 3.988281 2.25 5.425781l5.425781 5.425781c1.4375 1.441407 3.390626 2.25 5.425782 2.25 2.039062 0 3.992187-.808593 5.429687-2.25l5.425781-5.425781c1.4375-1.4375 3.390626-2.25 5.425782-2.25s3.988281.8125 5.429687 2.25l5.421875 5.425781c1.441406 1.4375 2.25 3.390626 2.25 5.425782 0 2.039062-.808594 3.992187-2.25 5.429687l-5.421875 5.425781c-1.441406 1.4375-2.25 3.390626-2.25 5.425782s.808594 3.988281 2.25 5.429687l5.421875 5.421875c1.441406 1.441406 3.394532 2.25 5.429688 2.25s3.988281-.808594 5.425781-2.25l5.425781-5.421875c1.4375-1.441406 3.390625-2.25 5.429688-2.25 2.035156 0 3.988281.808594 5.425781 2.25l5.425781 5.421875c1.4375 1.441406 2.25 3.394532 2.25 5.429688s-.8125 3.988281-2.25 5.425781l-5.441406 5.410156c-1.441406 1.4375-2.25 3.390625-2.25 5.425781 0 2.039063.808594 3.992188 2.25 5.429688l5.425781 5.421875c1.4375 1.441406 3.390625 2.253906 5.425781 2.253906 2.035157 0 3.988282-.8125 5.429688-2.253906l5.421875-5.421875c1.441406-1.441406 3.394531-2.25 5.429687-2.25 2.035157 0 3.988282.808594 5.425782 2.25l5.425781 5.421875c1.441406 1.441406 2.25 3.394531 2.25 5.429687 0 2.035157-.808594 3.988282-2.25 5.429688l-5.425781 5.429688c-1.4375 1.4375-2.25 3.390624-2.25 5.425781 0 2.035156.8125 3.984375 2.25 5.421875l5.425781 5.433594c3 2.992187 7.855469 2.992187 10.855469 0l.679687-.679688c5.621094-5.617188 14.730469-5.617188 20.351563 0l.9375.933594c3.324218 3.308594 5.195312 7.808594 5.191406 12.496094v1.671874c.003906 4.679688-1.855469 9.167969-5.167969 12.472657l-258.296875 258.289062c-3.304687 3.3125-7.792968 5.171875-12.472656 5.167969h-1.664062c-4.675782.003906-9.164063-1.855469-12.46875-5.167969l-.9375-.9375c-5.617188-5.621093-5.617188-14.726562 0-20.351562l.679687-.679688c2.992187-3 2.992187-7.855469 0-10.855469l-5.433594-5.421874c-1.4375-1.441407-3.386719-2.25-5.421875-2.25s-3.988281.808593-5.425781 2.25l-5.429687 5.421874c-1.441407 1.441407-3.394532 2.25-5.429688 2.25s-3.988281-.808593-5.425781-2.25l-5.425781-5.421874c-1.441407-1.441407-2.25-3.394532-2.25-5.429688s.808593-3.988281 2.25-5.429688l5.425781-5.421874c1.4375-1.441407 2.25-3.390626 2.25-5.429688 0-2.035156-.8125-3.988281-2.25-5.425781l-5.425781-5.425781c-1.4375-1.441407-3.390626-2.25-5.425782-2.25-2.039062 0-3.992187.808593-5.429687 2.25l-5.425781 5.425781c-1.4375 1.4375-3.390626 2.25-5.425782 2.25s-3.988281-.8125-5.429687-2.25l-5.421875-5.425781c-1.441406-1.4375-2.25-3.390626-2.25-5.425782 0-2.039062.808594-3.992187 2.25-5.429687l5.421875-5.425781c1.441406-1.4375 2.25-3.390626 2.25-5.425782s-.808594-3.988281-2.25-5.429687l-5.421875-5.421875c-1.441406-1.441406-3.394532-2.25-5.429688-2.25s-3.988281.808594-5.425781 2.25l-5.425781 5.421875c-1.4375 1.441406-3.390625 2.25-5.429688 2.25-2.035156 0-3.988281-.808594-5.425781-2.25l-5.425781-5.421875c-1.4375-1.441406-2.25-3.394532-2.25-5.429688s.8125-3.988281 2.25-5.425781l5.441406-5.410156c1.441406-1.4375 2.25-3.390625 2.25-5.425781 0-2.039063-.808594-3.992188-2.25-5.429688l-5.425781-5.421875c-1.4375-1.441406-3.390625-2.253906-5.425781-2.253906-2.035157 0-3.988282.8125-5.429688 2.253906l-5.421875 5.421875c-1.441406 1.441406-3.394531 2.25-5.429687 2.25-2.035157 0-3.988282-.808594-5.425782-2.25l-5.425781-5.421875c-1.441406-1.441406-2.25-3.394531-2.25-5.429687 0-2.035157.808594-3.988282 2.25-5.429688l5.425781-5.429688c1.4375-1.4375 2.25-3.390624 2.25-5.425781 0-2.035156-.8125-3.984375-2.25-5.421875l-5.425781-5.433594c-3-2.992187-7.855469-2.992187-10.855469 0l-.679687.679688c-5.621094 5.617188-14.730469 5.617188-20.351563 0l-.9375-.933594c-3.324218-3.308594-5.19531225-7.808594-5.191406-12.496094v-1.671874c-.00390625-4.679688 1.855469-9.167969 5.167969-12.472657l258.296875-258.289062c3.304687-3.3125 7.792968-5.17187525 12.472656-5.167969zm0 0" fill="#f276a0"/><path d="m193.113281 183.328125 39.359375 20.054687 31.238282-31.238281-6.910157 43.632813 39.359375 20.054687-43.632812 6.910157-6.910156 43.632812-20.058594-39.359375-43.628906 6.914063 31.238281-31.242188zm0 0" fill="#ec008c"/><g fill="#db5c87"><path d="m202.339844 402.34375 200-199.996094 11.3125 11.3125-200 200zm0 0"/><path d="m50.339844 250.34375 199.996094-199.996094 11.316406 11.3125-200 200zm0 0"/></g></svg>